arm26_optimize_states
version=1
nRows=37
nColumns=17
inDegrees=yes

# SIMM Motion File Header:
name arm26_optimize_states
datacolumns 17
datarows 37
otherdata 1
range 0.03000000 0.09421532
endheader
time	r_shoulder_elev	r_elbow_flex	r_shoulder_elev_u	r_elbow_flex_u	TRIlong.activation	TRIlong.fiber_length	TRIlat.activation	TRIlat.fiber_length	TRImed.activation	TRImed.fiber_length	BIClong.activation	BIClong.fiber_length	BICshort.activation	BICshort.fiber_length	BRA.activation	BRA.fiber_length
      0.03000000	     90.00000000	      0.00000000	      0.00000000	      0.00000000	      0.02000000	      0.17921184	      0.02000000	      0.07049603	      0.10000000	      0.06496538	      0.10000000	      0.12721248	      0.02000000	      0.18188742	      0.02000000	      0.08688000
      0.03147118	     89.99731601	      0.00138043	     -3.64781097	      1.87421905	      0.02000000	      0.17921182	      0.02000000	      0.07049605	      0.10000000	      0.06496540	      0.10000000	      0.12721246	      0.02000000	      0.18188681	      0.02000000	      0.08688000
      0.03377066	     89.98238929	      0.00901469	     -9.32950875	      4.75158627	      0.02000000	      0.17921160	      0.02000000	      0.07049644	      0.10000000	      0.06496571	      0.10000000	      0.12721225	      0.02000000	      0.18188060	      0.02000000	      0.08688006
      0.03691041	     89.94099624	      0.02989257	    -17.02360984	      8.50965359	      0.02000000	      0.17921076	      0.02000000	      0.07049840	      0.10000000	      0.06496726	      0.10000000	      0.12721116	      0.02000000	      0.18185957	      0.02000000	      0.08688036
      0.04005015	     89.87559149	      0.06217509	    -24.62107210	     12.00581308	      0.02000000	      0.17920913	      0.02000000	      0.07050279	      0.10000000	      0.06497080	      0.10000000	      0.12720865	      0.02000000	      0.18182338	      0.02000000	      0.08688099
      0.04247212	     89.80894022	      0.09430811	    -30.40665990	     14.49794739	      0.02000000	      0.17920718	      0.02000000	      0.07050823	      0.10000000	      0.06497526	      0.10000000	      0.12720546	      0.02000000	      0.18178601	      0.02000000	      0.08688176
      0.04489408	     89.72836196	      0.13224368	    -36.12079904	     16.79521269	      0.02000000	      0.17920447	      0.02000000	      0.07051565	      0.10000000	      0.06498142	      0.10000000	      0.12720102	      0.02000000	      0.18173969	      0.02000000	      0.08688277
      0.04731604	     89.63403170	      0.17550442	    -41.76300207	     18.89599735	      0.02000000	      0.17920086	      0.02000000	      0.07052512	      0.10000000	      0.06498942	      0.10000000	      0.12719522	      0.02000000	      0.18168561	      0.02000000	      0.08688403
      0.04973801	     89.52612484	      0.22361197	    -47.33138698	     20.79614177	      0.02000000	      0.17919621	      0.02000000	      0.07053664	      0.10000000	      0.06499929	      0.10000000	      0.12718797	      0.02000000	      0.18162266	      0.02000000	      0.08688553
      0.05157529	     89.43532013	      0.26304418	    -51.50868205	     22.11020372	      0.02000000	      0.17919189	      0.02000000	      0.07054672	      0.10000000	      0.06500804	      0.10000000	      0.12718148	      0.02000000	      0.18157040	      0.02000000	      0.08688681
      0.05341257	     89.33687825	      0.30478884	    -55.64494057	     23.31355135	      0.02000000	      0.17918681	      0.02000000	      0.07055788	      0.10000000	      0.06501786	      0.10000000	      0.12717412	      0.02000000	      0.18151302	      0.02000000	      0.08688822
      0.05585629	     89.19423564	      0.36355547	    -61.08676674	     24.75333618	      0.02000000	      0.17917877	      0.02000000	      0.07057432	      0.10000000	      0.06503251	      0.10000000	      0.12716298	      0.02000000	      0.18143043	      0.02000000	      0.08689027
      0.05760005	     89.08436035	      0.40753224	    -64.92869620	     25.67066791	      0.02000000	      0.17917205	      0.02000000	      0.07058707	      0.10000000	      0.06504401	      0.10000000	      0.12715409	      0.02000000	      0.18136613	      0.02000000	      0.08689185
      0.05934381	     88.96781362	      0.45303409	    -68.73903420	     26.50378644	      0.02000000	      0.17916444	      0.02000000	      0.07060060	      0.10000000	      0.06505634	      0.10000000	      0.12714443	      0.02000000	      0.18129863	      0.02000000	      0.08689351
      0.06147383	     88.81647797	      0.51047357	    -73.35068595	     27.40867302	      0.02000000	      0.17915388	      0.02000000	      0.07061808	      0.10000000	      0.06507245	      0.10000000	      0.12713160	      0.02000000	      0.18121034	      0.02000000	      0.08689563
      0.06314144	     88.69116900	      0.55671446	    -76.93111326	     28.03806551	      0.02000000	      0.17914456	      0.02000000	      0.07063243	      0.10000000	      0.06508579	      0.10000000	      0.12712079	      0.02000000	      0.18113804	      0.02000000	      0.08689737
      0.06480904	     88.55991143	      0.60394722	    -80.48479526	     28.59790568	      0.02000000	      0.17913428	      0.02000000	      0.07064731	      0.10000000	      0.06509972	      0.10000000	      0.12710932	      0.02000000	      0.18106154	      0.02000000	      0.08689916
      0.06647665	     88.42274835	      0.65206009	    -84.01421994	     29.09489994	      0.02000000	      0.17912299	      0.02000000	      0.07066265	      0.10000000	      0.06511419	      0.10000000	      0.12709723	      0.02000000	      0.18098233	      0.02000000	      0.08690099
      0.06814426	     88.27971988	      0.70094961	    -87.51912114	     29.52903602	      0.02000000	      0.17911063	      0.02000000	      0.07067842	      0.10000000	      0.06512915	      0.10000000	      0.12708453	      0.02000000	      0.18089917	      0.02000000	      0.08690287
      0.06981186	     88.13086572	      0.75051438	    -91.00164610	     29.90615282	      0.02000000	      0.17909718	      0.02000000	      0.07069457	      0.10000000	      0.06514455	      0.10000000	      0.12707124	      0.02000000	      0.18081339	      0.02000000	      0.08690478
      0.07147947	     87.97622287	      0.80066059	    -94.46126579	     30.22556096	      0.02000000	      0.17908257	      0.02000000	      0.07071105	      0.10000000	      0.06516034	      0.10000000	      0.12705741	      0.02000000	      0.18072350	      0.02000000	      0.08690672
      0.07314708	     87.81582836	      0.85129529	    -97.90061330	     30.49424862	      0.02000000	      0.17906677	      0.02000000	      0.07072782	      0.10000000	      0.06517649	      0.10000000	      0.12704305	      0.02000000	      0.18063156	      0.02000000	      0.08690869
      0.07453103	     87.67837318	      0.89362786	   -100.73822279	     30.67590281	      0.02000000	      0.17905272	      0.02000000	      0.07074193	      0.10000000	      0.06519012	      0.10000000	      0.12703076	      0.02000000	      0.18055159	      0.02000000	      0.08691033
      0.07591498	     87.53700003	      0.93618935	   -103.56293959	     30.82593077	      0.02000000	      0.17903779	      0.02000000	      0.07075620	      0.10000000	      0.06520395	      0.10000000	      0.12701815	      0.02000000	      0.18047042	      0.02000000	      0.08691199
      0.07761649	     87.35784518	      0.98876513	   -107.01682662	     30.96430988	      0.02000000	      0.17901820	      0.02000000	      0.07077392	      0.10000000	      0.06522117	      0.10000000	      0.12700223	      0.02000000	      0.18036680	      0.02000000	      0.08691403
      0.07910177	     87.19666570	      1.03482234	   -110.01661421	     31.04870027	      0.02000000	      0.17899995	      0.02000000	      0.07078953	      0.10000000	      0.06523638	      0.10000000	      0.12698799	      0.02000000	      0.18027462	      0.02000000	      0.08691582
      0.08058706	     87.03104175	      1.08097858	   -113.00095484	     31.09637402	      0.02000000	      0.17898059	      0.02000000	      0.07080525	      0.10000000	      0.06525173	      0.10000000	      0.12697346	      0.02000000	      0.18017870	      0.02000000	      0.08691762
      0.08207234	     86.86099536	      1.12718183	   -115.97248525	     31.11412692	      0.02000000	      0.17896011	      0.02000000	      0.07082106	      0.10000000	      0.06526720	      0.10000000	      0.12695865	      0.02000000	      0.18008184	      0.02000000	      0.08691941
      0.08335855	     86.71018218	      1.16719559	   -118.53357668	     31.10118988	      0.02000000	      0.17894142	      0.02000000	      0.07083480	      0.10000000	      0.06528067	      0.10000000	      0.12694564	      0.02000000	      0.17999452	      0.02000000	      0.08692096
      0.08464476	     86.55608096	      1.20717887	   -121.08558632	     31.06760548	      0.02000000	      0.17892185	      0.02000000	      0.07084858	      0.10000000	      0.06529421	      0.10000000	      0.12693246	      0.02000000	      0.17990654	      0.02000000	      0.08692251
      0.08619153	     86.36642399	      1.25518287	   -124.14096210	     30.99630943	      0.02000000	      0.17889711	      0.02000000	      0.07086519	      0.10000000	      0.06531054	      0.10000000	      0.12691641	      0.02000000	      0.17979736	      0.02000000	      0.08692436
      0.08757920	     86.19226183	      1.29813683	   -126.87121715	     30.90839810	      0.02000000	      0.17887375	      0.02000000	      0.07088010	      0.10000000	      0.06532523	      0.10000000	      0.12690186	      0.02000000	      0.17969827	      0.02000000	      0.08692602
      0.08896687	     86.01431874	      1.34095166	   -129.58966079	     30.79433989	      0.02000000	      0.17884930	      0.02000000	      0.07089502	      0.10000000	      0.06533994	      0.10000000	      0.12688718	      0.02000000	      0.17959565	      0.02000000	      0.08692766
      0.09035454	     85.83261034	      1.38359317	   -132.29888574	     30.66075976	      0.02000000	      0.17882370	      0.02000000	      0.07090992	      0.10000000	      0.06535466	      0.10000000	      0.12687240	      0.02000000	      0.17949270	      0.02000000	      0.08692930
      0.09154856	     85.67325627	      1.42012374	   -134.62064254	     30.52553211	      0.02000000	      0.17880075	      0.02000000	      0.07092273	      0.10000000	      0.06536732	      0.10000000	      0.12685962	      0.02000000	      0.17940081	      0.02000000	      0.08693069
      0.09274258	     85.51113406	      1.45648442	   -136.93585896	     30.37696283	      0.02000000	      0.17877693	      0.02000000	      0.07093551	      0.10000000	      0.06537997	      0.10000000	      0.12684679	      0.02000000	      0.17930866	      0.02000000	      0.08693208
      0.09421532	     85.30736555	      1.50107396	   -139.78082266	     30.17145813	      0.02000000	      0.17874633	      0.02000000	      0.07095124	      0.10000000	      0.06539554	      0.10000000	      0.12683094	      0.02000000	      0.17919189	      0.02000000	      0.08693378
